<?xml version="1.0" encoding="UTF-8"?>
<svg id="Layer_2" data-name="Layer 2" xmlns="http://www.w3.org/2000/svg" viewBox="0 0 301.08 301.08">
  <defs>
    <style>
      .cls-1 {
        fill: #fff;
      }

      .cls-2 {
        fill: #d3b242;
      }
    </style>
  </defs>
  <g id="Layer_1-2" data-name="Layer 1">
    <rect class="cls-2" width="301.08" height="301.08" rx="52.56" ry="52.56"/>
    <g>
      <path class="cls-1" d="M239.7,158.17c-.36,1.98-1.25,3.52-2.65,4.62-1.9,1.49-4.38,2.24-7.44,2.24-3.79,0-6.63-1.12-8.5-3.36-1.87-2.24-2.93-5.7-3.17-10.38h28.23v-3.39c0-6.89-1.37-11.89-4.12-15-2.75-3.11-6.89-4.67-12.44-4.67-6.18,0-10.77,1.72-13.79,5.17-3.02,3.45-4.52,8.79-4.52,16.05s1.51,12.6,4.52,16.05c3.01,3.45,7.61,5.17,13.79,5.17,4.86,0,8.84-1.27,11.93-3.82,2.58-2.13,4.08-5.02,4.5-8.67h-6.34Zm-18.3-21.53c1.82-1.85,4.56-2.78,8.21-2.78,6.57,0,9.85,3.93,9.85,11.8h-21.37c.39-4.17,1.5-7.17,3.32-9.03Z"/>
      <path class="cls-1" d="M173.37,149.47h14.58v3.38s-14.58,0-14.58,0v-3.38Z"/>
      <path class="cls-1" d="M196.27,103.17h6.71v67.47h-6.71V103.17Z"/>
      <path class="cls-1" d="M255.35,117.53h-9.27v-4.05h9.27v-10.31h3.97v10.31h9.32v4.05h-9.32v10.26h-3.97v-10.26Z"/>
      <path class="cls-1" d="M80.41,168.27c-2.72-1.65-4.08-4.65-4.08-8.99,0-5.22,2.31-8.8,6.92-10.73,4.61-1.94,11.28-2.91,19.99-2.91v-4.49c0-2.38-.67-4.2-2-5.46-1.33-1.27-3.74-1.9-7.23-1.9-3.28,0-5.63,.62-7.04,1.86-1.41,1.24-2.11,2.76-2.11,4.57v.93h-6.54c-.05-.31-.08-.88-.08-1.7,0-3.62,1.49-6.41,4.46-8.37,2.97-1.96,6.95-2.94,11.92-2.94s8.84,1.06,11.46,3.18c2.61,2.12,3.92,5.11,3.92,8.99v22.09c0,.93,.26,1.62,.77,2.05,.51,.44,1.15,.66,1.92,.66h3.08v4.42c-1.33,.62-3.08,.93-5.23,.93-1.74,0-3.2-.53-4.38-1.59-1.18-1.06-1.97-2.47-2.38-4.22h-.54c-1.38,1.91-3.27,3.41-5.65,4.49-2.38,1.08-5.01,1.63-7.88,1.63-3.49,0-6.59-.83-9.3-2.48Zm16.76-4.42c1.79-.83,3.25-2.05,4.38-3.68,1.13-1.63,1.69-3.6,1.69-5.93v-2.94c-6.61,0-11.57,.53-14.88,1.59-3.31,1.06-4.96,3.06-4.96,6.01,0,2.22,.68,3.81,2.04,4.77,1.36,.96,3.37,1.43,6.04,1.43,2,0,3.9-.41,5.69-1.24Z"/>
      <path class="cls-1" d="M165.81,174.79c-2.27-2.38-5.36-3.57-9.27-3.57h-19.96c-1.7,0-3.01-.38-3.93-1.14-.91-.76-1.37-1.75-1.37-2.96s.46-2.19,1.37-2.95c.91-.76,2.22-1.14,3.93-1.14h7.94c6.24,0,11.17-1.48,14.8-4.43,3.62-2.95,5.44-7.1,5.44-12.44,0-4.7-1.77-8.64-5.3-11.82l-5.49-3.33c-2.84-1.14-5.99-1.72-9.46-1.72-6.24,0-11.16,1.48-14.75,4.43-3.59,2.95-5.39,7.1-5.39,12.44,0,2.67,.6,5.12,1.8,7.34,.85,1.57,1.91,2.97,3.2,4.19,.53,.51,1.11,.99,1.72,1.43-2.08,.51-3.99,1.4-5.72,2.67-1.04,.76-1.77,1.75-2.19,2.95,0,0,0,0,0,.01-.25,.89-.39,1.82-.41,2.78,0,.07,0,.14,0,.21,0,3.2,1.37,6.07,3.55,8.07,1.94,1.78,4.52,2.86,7.35,2.86h.08c.15-.01,.31-.01,.47-.01h20.71c1.83,0,3.29,.56,4.4,1.67,1.1,1.11,1.65,2.62,1.65,4.53s-.69,3.43-2.08,4.57c-1.39,1.14-3.12,1.72-5.2,1.72h-19.49c-1.83,0-3.28-.57-4.35-1.72-1.07-1.14-1.61-2.67-1.61-4.57,0-.98,.15-1.86,.43-2.63,0-.02,.01-.04,.02-.06h-8.26s-.01,.04-.02,.06c-.33,1.09-.5,2.29-.5,3.58,0,4.32,1.34,7.42,4.02,9.29,2.49,1.74,5.41,2.68,8.75,2.8,.25,0,.5,.01,.76,.01h20.05c3.59,0,6.57-.7,8.94-2.1,2.37-1.4,4.08-3.21,5.16-5.43,1.07-2.23,1.61-4.54,1.61-6.96,0-3.37-1.14-6.24-3.41-8.63Zm-30.08-36.31c2.02-1.81,4.98-2.72,8.89-2.72s6.87,.9,8.89,2.72c2.02,1.81,3.03,4.37,3.03,7.67s-1.01,5.86-3.03,7.67c-2.02,1.81-4.98,2.72-8.89,2.72s-6.87-.9-8.89-2.72c-2.02-1.81-3.03-4.37-3.03-7.67s1.01-5.86,3.03-7.67Z"/>
      <path class="cls-1" d="M60.85,158.2c-.36,1.98-1.25,3.52-2.65,4.62-1.9,1.49-4.38,2.24-7.44,2.24-3.79,0-6.63-1.12-8.5-3.36-1.87-2.24-2.93-5.7-3.17-10.38h28.23v-3.39c0-6.89-1.37-11.89-4.12-15-2.75-3.11-6.89-4.67-12.44-4.67-6.18,0-10.77,1.72-13.79,5.17-3.02,3.45-4.52,8.79-4.52,16.05s1.51,12.6,4.52,16.05c3.01,3.45,7.61,5.17,13.79,5.17,4.86,0,8.84-1.27,11.93-3.82,2.58-2.13,4.08-5.02,4.5-8.67h-6.34Zm-18.3-21.53c1.82-1.85,4.56-2.78,8.21-2.78,6.57,0,9.85,3.93,9.85,11.8h-21.37c.39-4.17,1.5-7.17,3.32-9.03Z"/>
    </g>
  </g>
</svg>